/* XPM */
static char * zeone128_xpm[] = {
"128 128 6 1",
" 	c None",
".	c #FFAE00",
"+	c #FFAD00",
"@	c #FFAF00",
"#	c #FFAC00",
"$	c #FFAB00",
"                                                                                                                                ",
"                                                                                                                                ",
"                                                                                                                                ",
"                                                      ....+.........++..+                                                       ",
"                                                 +...@..@@@@@@@@@@@@@@@....+.+                                                  ",
"                                             #...@@@@@@@@@@@@@@@@@@@@@@@@@@@@.@.+                                               ",
"                                           +..@@@@@@@@@@@@@@@@@@@@@@@@@@@@@@@@@@@.@+                                            ",
"                                        ..@@@@@@@@@@@@@@@@@@@@@@@@@@@@@@@@@@@@@@@@@...+                                         ",
"                                      +..@@@@@@@@@@@@@@@@@@@@@@@@@@@@@@@@@@@@@@@@@@@@@...                                       ",
"                                    ..@@@@@@@@@@@@@@@@@@@@@@@@@@@@@@@@@@@@@@@@@@@@@@@@@@...                                     ",
"                                  +.@@@@@@@@@@@@@@@@@@@@@@@@@@@@@@@@@@@@@@@@@@@@@@@@@@@@@@..+                                   ",
"                                +.@@@@@@@@@@@@@@@@@@@@@@@@@@@@@@@@@@@@@@@@@@@@@@@@@@@@@@@@@@...                                 ",
"                              ...@@@@@@@@@@@@@@@@@@@@@@@@@@@@@@@@@@@@@@@@@@@@@@@@@@@@@@@@@@@@@..         ............           ",
"                             +@@@@@@@@@@@@@@@@@@@@@@@@@@@@@@@@@@@@@@@@@@@@@@@@@@@@@@@@@@@@@@@@@@@.      +.@@@@@@@@@.#           ",
"                           +.@@@@@@@@@@@@@@@@@@@@@@@@@@@@@.@.@@@@.....@@@@@@@@@@@@@@@@@@@@@@@@@@@@@     .@@@@@@@@@@.            ",
"                          .@@@@@@@@@@@@@@@@@@@@@@@@.....@            ..++@..@@@@@@@@@@@@@@@@@@@@@@@.   +@@@@@@@@@@@             ",
"                         ..@@@@@@@@@@@@@@@@@@@@.@..+                       +...@@@@@@@@@@@@@@@@@@@@@.++.@@@@@@@@@.+             ",
"                        .@@@@@@@@@@@@@@@@@@@@..+                              +@..@@@@@@@@@@@@@@@@@@@..@@@@@@@@@@@              ",
"                       .@@@@@@@@@@@@@@@@@@...+                                   @..@@@@@@@@@@@@@@@@@@@@@@@@@@@@.#              ",
"                     ..@@@@@@@@@@@@@@@@@.@.                                        ..@@@@@@@@@@@@@@@@@@@@@@@@@@..               ",
"                    +.@@@@@@@@@@@@@@@@@..                                             ..@@@@@@@@@@@@@@@@@@@@@@@.                ",
"                   ++@@@@@@@@@@@@@@@@..                                                +..@@@@@@@@@@@@@@@@@@@@@.                ",
"                   .@@@@@@@@@@@@@@@.@.                                                   +.@@@@@@@@@@@@@@@@@@@.                 ",
"                  .@@@@@@@@@@@@@@@..                                                       ..@@@@@@@@@@@@@@@@.                  ",
"                 .@@@@@@@@@@@@@@@.+                                                         +.@@@@@@@@@@@@@@..                  ",
"                .@@@@@@@@@@@@@@@.                                                            ..@@@@@@@@@@@@@.                   ",
"               +.@@@@@@@@@@@@@@.                                                              +.@@@@@@@@@@@@+                   ",
"              +.@@@@@@@@@@@@@@+                                                                 .@@@@@@@@@@.                    ",
"              .@@@@@@@@@@@@@@+                                                                   .@@@@@@@@.                     ",
"             .@@@@@@@@@@@@@@@                                                                     .@@@@@@..                     ",
"            +.@@@@@@@@@@@@@@                                                                       +@@@@@+                      ",
"            .@@@@@@@@@@@@@+                                                                         .@@@.                       ",
"           ..@@@@@@@@@@@@.                                                                          @.@@+                       ",
"           .@@@@@@@@@@@@.                                                                            +..                        ",
"          .@@@@@@@@@@@@..               +...............................................              +                         ",
"          .@@@@@@@@@@@.+                +@@@@@@@@@@@@@@@@@@@@@@@@@@@@@@@@@@@@@@@@@@@@@..                                        ",
"         .@@@@@@@@@@@@.                  .@@@@@@@@@@@@@@@@@@@@@@@@@@@@@@@@@@@@@@@@@@@@.                                         ",
"         .@@@@@@@@@@@..                  .@@@@@@@@@@@@@@@@@@@@@@@@@@@@@@@@@@@@@@@@@@@@+                             +.          ",
"        @@@@@@@@@@@@@.                   #@@@@@@@@@@@@@@@@@@@@@@@@@@@@@@@@@@@@@@@@@@@+                              ...         ",
"        .@@@@@@@@@@@.                     @@@@@@@@@@@@@@@@@@@@@@@@@@@@@@@@@@@@@@@@@@.                              .@@.         ",
"       +@@@@@@@@@@@.+                     +@@@@@@@@@@@@@@@@@@@@@@@@@@@@@@@@@@@@@@@@.@                              .@@.         ",
"       .@@@@@@@@@@@.                      @@@@@@@@@@@@@@@@@@@@@@@@@@@@@@@@@@@@@@@@@.                              .@@@@.        ",
"      +@@@@@@@@@@@..                       .@@@@@@@@@@@@@@@@@@@@@@@@@@@@@@@@@@@@@@.+                             .@@@@@.        ",
"      .@@@@@@@@@@@.                        @@@@@@@@@@@@@@@@@@@@@@@@@@@@@@@@@@@@@@@.                              .@@@@@@+       ",
"      .@@@@@@@@@@@+                        +.......................@@@@@@@@@@@@@@.                              .@@@@@@@@       ",
"     +@@@@@@@@@@@@                                                +.@@@@@@@@@@@@.+                             #@@@@@@@@@       ",
"     +@@@@@@@@@@@.                                                .@@@@@@@@@@@@@.                              .@@@@@@@@@       ",
"     .@@@@@@@@@@.+                                                .@@@@@@@@@@@@.+                             @@@@@@@@@@@.      ",
"     @@@@@@@@@@@.                                                .@@@@@@@@@@@@@.                              .@@@@@@@@@@.      ",
"    ..@@@@@@@@@@.                                               +@@@@@@@@@@@@@.                              #.@@@@@@@@@@.      ",
"    .@@@@@@@@@@@.                                               .@@@@@@@@@@@@..                               .@@@@@@@@@@@      ",
"    .@@@@@@@@@@@.                                              .@@@@@@@@@@@@@.                                +@@@@@@@@@@@+     ",
"    .@@@@@@@@@@.                                               .@@@@@@@@@@@@@+                                .@@@@@@@@@@@.     ",
"    .@@@@@@@@@@@                                              .@@@@@@@@@@@@@.                                  @@@@@@@@@@@.     ",
"   +.@@@@@@@@@@+                                             #.@@@@@@@@@@@@.                                   .@@@@@@@@@@.     ",
"   ..@@@@@@@@@@+                                             .@@@@@@@@@@@@@.                                   .@@@@@@@@@@.     ",
"   @@@@@@@@@@@@+                                            .@@@@@@@@@@@@@.                                    .@@@@@@@@@@@     ",
"   @@@@@@@@@@@@                                            $.@@@@@@@@@@@@@#                                    .@@@@@@@@@@@.    ",
"   .@@@@@@@@@@.                                            .@@@@@@@@@@@@@.                                     +@@@@@@@@@@@@    ",
"   .@@@@@@@@@@.                                           ..@@@@@@@@@@@@.                                      .@@@@@@@@@@@@    ",
"   .@@@@@@@@@@@                                           @@@@@@@@@@@@@@.                                      .@@@@@@@@@@@.    ",
"   .@@@@@@@@@@.                                          +@@@@@@@@@@@@@.                                        @@@@@@@@@@@@    ",
"   @@@@@@@@@@@@                                         +.@@@@@@@@@@@@.+                                        @@@@@@@@@@@.    ",
"   @@@@@@@@@@@.                                         .@@@@@@@@@@@@..                                         @@@@@@@@@@@.    ",
"   @@@@@@@@@@@@                                        +.@@@@@@@@@@@@@                                          @@@@@@@@@@@.    ",
"   .@@@@@@@@@@@                                        .@@@@@@@@@@@@.+                                         #@@@@@@@@@@@.    ",
"   .@@@@@@@@@@.                                       .@@@@@@@@@@@@@@                                          +@@@@@@@@@@@+    ",
"   .@@@@@@@@@@@                                      +@@@@@@@@@@@@@@+                                          .@@@@@@@@@@@.    ",
"   @@@@@@@@@@@.                                      +@@@@@@@@@@@@@.                                           +@@@@@@@@@@@+    ",
"   .@@@@@@@@@@..                                    +@@@@@@@@@@@@@.                                            .@@@@@@@@@@@+    ",
"   .@@@@@@@@@@@.                                    .@@@@@@@@@@@@..                                            @@@@@@@@@@@@     ",
"   +.@@@@@@@@@@+                                   .@@@@@@@@@@@@@@                                             .@@@@@@@@@@.     ",
"   #.@@@@@@@@@@+                                  +.@@@@@@@@@@@@@#                                             @@@@@@@@@@@.     ",
"    .@@@@@@@@@@.                                  .@@@@@@@@@@@@@.                                             .@@@@@@@@@@@.     ",
"    +@@@@@@@@@@..                                .@@@@@@@@@@@@@@                                              .@@@@@@@@@@@.     ",
"    .@@@@@@@@@@@.                               ..@@@@@@@@@@@@.+                                              @@@@@@@@@@@@.     ",
"    +@@@@@@@@@@@.                               @@@@@@@@@@@@@@.                                               @@@@@@@@@@@@      ",
"    +.@@@@@@@@@@.                              +.@@@@@@@@@@@@..                                              +.@@@@@@@@@@@      ",
"     @@@@@@@@@@@+                              @@@@@@@@@@@@@@.                                               +@@@@@@@@@@@.      ",
"     .@@@@@@@@@.                              +@@@@@@@@@@@@@.                                                .@@@@@@@@@@@+      ",
"     #.@@@@@@@@+                             +.@@@@@@@@@@@@@.                                               +.@@@@@@@@@@@       ",
"      .@@@@@@@.                              .@@@@@@@@@@@@@..+...................+                          .@@@@@@@@@@@.       ",
"      .@@@@@@.                              #@@@@@@@@@@@@@@@@@@@@@@@@@@@@@@@@@@@@.                          .@@@@@@@@@@@.       ",
"      +.@@@@..                              .@@@@@@@@@@@@@@@@@@@@@@@@@@@@@@@@@@@@..                        .@@@@@@@@@@@@        ",
"       .@@@@.                              @@@@@@@@@@@@@@@@@@@@@@@@@@@@@@@@@@@@@@@.                        .@@@@@@@@@@@.        ",
"       .@@@@                              @@@@@@@@@@@@@@@@@@@@@@@@@@@@@@@@@@@@@@@@.                       +@@@@@@@@@@@@@        ",
"       ..@@.                              .@@@@@@@@@@@@@@@@@@@@@@@@@@@@@@@@@@@@@@@@.                      @@@@@@@@@@@@.         ",
"        .@@                              .@@@@@@@@@@@@@@@@@@@@@@@@@@@@@@@@@@@@@@@@@.                     .@@@@@@@@@@@@+         ",
"        +..                             +.@@@@@@@@@@@@@@@@@@@@@@@@@@@@@@@@@@@@@@@@@..                   #.@@@@@@@@@@@.          ",
"         .                              .@@@@@@@@@@@@@@@@@@@@@@@@@@@@@@@@@@@@@@@@@@@.                   .@@@@@@@@@@@..          ",
"                                       .@@@@@@@@@@@@@@@@@@@@@@@@@@@@@@@@@@@@@@@@@@@@@+                 .@@@@@@@@@@@@.           ",
"                                       +@@@@@@@@@@@@@@@@@@@@@@@@@@@@@@@@@@@@@@@@@@@@@.                .@@@@@@@@@@@@.+           ",
"                       ..              ++++++++++++++++++++++++++++++++++++++++++++++@                .@@@@@@@@@@@@.            ",
"                      +@@+                                                                           .@@@@@@@@@@@@.+            ",
"                      .@@@+                                                                         .@@@@@@@@@@@@@@             ",
"                     .@@@@.+                                                                       +.@@@@@@@@@@@@.+             ",
"                    +@@@@@@..                                                                     +@@@@@@@@@@@@@..              ",
"                    .@@@@@@@.+                                                                   +@@@@@@@@@@@@@@@               ",
"                   .@@@@@@@@@.+                                                                 @.@@@@@@@@@@@@@.+               ",
"                  .@@@@@@@@@@@.@                                                               ..@@@@@@@@@@@@@..                ",
"                  @@@@@@@@@@@@@@.                                                             ..@@@@@@@@@@@@@..                 ",
"                 +@@@@@@@@@@@@@@@.                                                           +@@@@@@@@@@@@@@@.                  ",
"                +.@@@@@@@@@@@@@@@..                                                        +@@@@@@@@@@@@@@@@.                   ",
"                +@@@@@@@@@@@@@@@@@@.+                                                     ..@@@@@@@@@@@@@@@..                   ",
"               ..@@@@@@@@@@@@@@@@@@@..                                                  ..@@@@@@@@@@@@@@@@..                    ",
"               .@@@@@@@@@@@@@@@@@@@@@@..                                              +.@@@@@@@@@@@@@@@@@@+                     ",
"              .@@@@@@@@@@@@@@@@@@@@@@@@...                                          #+.@@@@@@@@@@@@@@@@@..                      ",
"             ..@@@@@@@@@@@@@@@@@@@@@@@@@@...                                      .+.@@@@@@@@@@@@@@@@@@.#                       ",
"             .@@@@@@@@@@@@@@@@@@@@@@@@@@@@@...+                                 +.@@@@@@@@@@@@@@@@@@@@.+                        ",
"            +@@@@@@@@@@.+.@@@@@@@@@@@@@@@@@@@@.+@.                           +...@@@@@@@@@@@@@@@@@@@@.                          ",
"           @.@@@@@@@@@@.  .@@@@@@@@@@@@@@@@@@@@@@...+#                  +...@.@@@@@@@@@@@@@@@@@@@@@@+                           ",
"           .@@@@@@@@@@.    +.@@@@@@@@@@@@@@@@@@@@@@@@.@@.++..+.@+.+@..@@.@@@@@@@@@@@@@@@@@@@@@@@@@@@                            ",
"          ..@@@@@@@@@.@     +.@@@@@@@@@@@@@@@@@@@@@@@@@@@@@@@@@@@@@@@@@@@@@@@@@@@@@@@@@@@@@@@@@@@+                              ",
"          .@@@@@@@@@@.        .@@@@@@@@@@@@@@@@@@@@@@@@@@@@@@@@@@@@@@@@@@@@@@@@@@@@@@@@@@@@@@@@.+                               ",
"         +@@@@@@@@@@@          ..@@@@@@@@@@@@@@@@@@@@@@@@@@@@@@@@@@@@@@@@@@@@@@@@@@@@@@@@@@@@..                                 ",
"                                 ..@@@@@@@@@@@@@@@@@@@@@@@@@@@@@@@@@@@@@@@@@@@@@@@@@@@@@@@@.@.                                  ",
"                                   ..@@@@@@@@@@@@@@@@@@@@@@@@@@@@@@@@@@@@@@@@@@@@@@@@@@@@...                                    ",
"                                     +.@@@@@@@@@@@@@@@@@@@@@@@@@@@@@@@@@@@@@@@@@@@@@@@@@.#                                      ",
"                                       .@@@@@@@@@@@@@@@@@@@@@@@@@@@@@@@@@@@@@@@@@@@@@@@+                                        ",
"                                         @@.@@@@@@@@@@@@@@@@@@@@@@@@@@@@@@@@@@@@@@@@+                                           ",
"                                            #..@@@@@@@@@@@@@@@@@@@@@@@@@@@@@@@@@@+$                                             ",
"                                               @+....@@@@@@@@@@@@@@@@@@@@@..@++                                                 ",
"                                                   +......@.@.@@....@......                                                     ",
"                                                          ##+..@@+@+                                                            ",
"                                                                                                                                ",
"                                                                                                                                ",
"                                                                                                                                ",
"                                                                                                                                "};
