/* XPM */
static char * zeone64_xpm[] = {
"64 64 6 1",
" 	c None",
".	c #FFAB00",
"+	c #FFAD00",
"@	c #FFAE00",
"#	c #FFAC00",
"$	c #FFAF00",
"                                                                ",
"                                                                ",
"                           .+@+@++++#                           ",
"                       +@@@@@@@@@@@@@@@#+                       ",
"                    #++@@@$$$$$$$$$$$$@@$@+#                    ",
"                  .@@@$$$$$$$$$$$$$$$$$$$@@$+.                  ",
"                ++@@$$$$$$$$$$$$$$$$$$$$$$$$@@+.     .###+      ",
"               +@@$$$$$$$@@@++@@+@+@@@@$$$$$$$@@#   +@++++      ",
"             #@@$$$$$$@@+++.        ##+@@@$$$$$$$@..@$$@@.      ",
"            +@@$$$$$@@@+                #++@$$$$$@+@@$$@#       ",
"           +@$$$$$@@+.                    #+$@$$$$@@$$@+        ",
"          +@$$$$$@@.                        #@@$$$$$$$@+        ",
"         +$$$$$$@+                            +@$$$$$@@         ",
"        +@$$$$$@+                              +$$$$$@          ",
"        +@$$$$+#                                +@$$@#          ",
"       +@$$$$@+                                  #@$+           ",
"      #$$$$$$+                                    +@#           ",
"      @@$$$@+        #+++++++++++++++++++++#       #            ",
"     +@$$$@+         @@@@@@@@@@@@@@@@@@@@@@.                    ",
"     +$$$$@+         +$$$$$$$$$$$$$$$$$$$@@               #     ",
"    +@$$$@+          #$$$$$$$$$$$$$$$$$$$@#              #@#    ",
"    @$$$@+            +@@@@@@@@@@@$$$$$$@+               @@+    ",
"   .@$$$@#            +@@@@@@@@@@@@$$$$@@               #@$@    ",
"   +@$$$@#                       +@$$$$@#               @$$$@   ",
"   @$$$@@                        +@$$$@+               +$$$@+   ",
"   @$$$@+                       #@$$$$@.               +$$$@@   ",
"  #@$$$@.                       @$$$$@@                +$$$$@   ",
"  #@$$$@                       +@$$$$@                 +@$$$@#  ",
"  #@$$$@                      #@$$$$@#                 +@$$$@#  ",
"  +$$$@@                      +@$$$@@                   @$$$@@  ",
"  @$$$@+                     +@$$$$$#                   @$$$@@  ",
"  @$$$@+                     @$$$$@+                    @$$$@+  ",
"  @$$$@@                    +@$$$@@                     @$$$@+  ",
"  @$$$@+                   .@$$$$@@                     @$$$@#  ",
"  +$$$@+                   @@$$$@@                      @$$$@#  ",
"  +@$$@+                  #@$$$$@#                      $$$$$+  ",
"  #@$$$$                 .@$$$$@#                      +@$$$@.  ",
"  #@$$$$#                +@$$$@+                       @$$$$@   ",
"   @$$$@+               #$$$$$@+                       +$$$$@   ",
"   +$$$@+               +@$$$@@                        @$$$@+   ",
"   +@$@+               #@$$$$$+                       +@$$$@#   ",
"   +@$@#              .@$$$$$@+@@@@@@@@@#             @$$$$@    ",
"    +@+               @@$$$$$$$$$$$$$$$$$#           #@$$$@@    ",
"    +@               @@$$$$$$$$$$$$$$$$$@#           +@$$$@#    ",
"     +               @$$$$$$$$$$$$$$$$$$$+          +$$$$@+     ",
"                    @@$$$$$$$$$$$$$$$$$$$@#         @@$$$@+     ",
"            #       +######################        @@$$$@+      ",
"           #@+                                    +@$$$@@+      ",
"           @$+#                                  #@$$$$@#       ",
"          @@$$+#                                +@$$$$@+        ",
"         #@$$$$@#                              #@$$$$@+         ",
"         @$$$$$$@#                            +@$$$$$@.         ",
"        +@$$$$$$$$++                        #@@$$$$$@#          ",
"       #+$$$$$$$$$@++#                    #@@$$$$$$@#           ",
"       +@$$@@$$$$$$$@@+#                #+@@$$$$$$@#            ",
"      +@$$@@.#@@$$$$$$@@@@++        #+++@@$$$$$$$@              ",
"      @@@@@#   ++$$$$$$$$@@$@@@@@@@$@@@$$$$$$$@@#               ",
"      ++++.     +@@$$$$$$$$$$$$$$$$$$$$$$$$$@@@#                ",
"                  +@$@$$$$$$$$$$$$$$$$$$$$@$++                  ",
"                    ++@@@$$$$$$$$$$$$$$@$@+#                    ",
"                       #+++@@@@@@@@$$@+@#                       ",
"                           ##++#++##+                           ",
"                                                                ",
"                                                                "};
