/* XPM */
static char * zeone16_xpm[] = {
"16 16 6 1",
" 	c None",
".	c #FFAB00",
"+	c #FFAA00",
"@	c #FFAC00",
"#	c #FFA900",
"$	c #FFAD00",
"                ",
"     .+..+..    ",
"   ..+    .@..  ",
"  .@        .   ",
"  .   @..@      ",
" .+   .+.@    + ",
" .      @.    @ ",
" .     #.     @ ",
" .     .@     @ ",
" .    @.      . ",
"      @$@@   .. ",
"             .  ",
"  #.+       .+  ",
"  ..@.+   ..+   ",
"     +.@@@.     ",
"                "};
