/* XPM */
static char * zeone32_xpm[] = {
"32 32 8 1",
" 	c None",
".	c #FFAB00",
"+	c #FFAC00",
"@	c #FFAD00",
"#	c #FFA900",
"$	c #FFAE00",
"%	c #FFAA00",
"&	c #FFAF00",
"                                ",
"             .+@+.+#            ",
"          ++$$$$$$$@@+          ",
"        %@$$$@@+@@$$$$@+  ...   ",
"       @$$$@.      .@@$$@.$+.   ",
"      @$$@            +@$$$+    ",
"     @$$+              .@$+     ",
"    +$$@                .@.     ",
"   +$$@                         ",
"   +$@     @$$$$$$$$@.          ",
"  .@@%     @@@@@@@&$@       %.  ",
"  +$@           .@$@.       @@  ",
"  @$+           .$$@       %@@  ",
"  $$.           @$@         $$% ",
" %$@           +$@.         @$+ ",
" .$@          %@$+          @$+ ",
" .$$          +$@.          $$. ",
" .$$         .@$@           $$+ ",
"  @$+        @$$            @$% ",
"  @$+       +$$.           +$$  ",
"  +@       %@&$@@$$@.      @$@  ",
"           @$$$$$$$$@     .$@.  ",
"          %++++++++++     +$+   ",
"      .                  +$@.   ",
"     @$+                .$$+    ",
"     @$$@.             +$$@     ",
"    +$$$$@.          +@$&@      ",
"   %@+.++$$@+++@+++@+$$@.       ",
"         @$$$$$$$&$$&@@         ",
"           .++@@@@$@+           ",
"                                ",
"                                "};
